<svg id="instagram" xmlns="http://www.w3.org/2000/svg" width="30" height="30" viewBox="0 0 512 512">
  <g id="Group_2" data-name="Group 2">
    <g id="Group_1" data-name="Group 1">
      <path id="Path_1" data-name="Path 1" d="M373.659,0H138.341C62.06,0,0,62.06,0,138.341V373.659C0,449.94,62.06,512,138.341,512H373.659C449.94,512,512,449.94,512,373.659V138.341C512,62.06,449.94,0,373.659,0Zm96.977,373.659a97.087,97.087,0,0,1-96.977,96.977H138.341a97.087,97.087,0,0,1-96.977-96.977V138.341a97.087,97.087,0,0,1,96.977-96.977H373.659a97.087,97.087,0,0,1,96.977,96.977Z" fill="#da232e"/>
    </g>
  </g>
  <g id="Group_4" data-name="Group 4">
    <g id="Group_3" data-name="Group 3">
      <path id="Path_2" data-name="Path 2" d="M370.586,238.141A114.792,114.792,0,1,0,256.775,369.814a116.364,116.364,0,0,0,17.083-1.265,114.812,114.812,0,0,0,96.728-130.408Zm-102.8,89.491a73.444,73.444,0,1,1,61.877-83.422A72.946,72.946,0,0,1,267.791,327.632Z" fill="#da232e"/>
    </g>
  </g>
  <g id="Group_6" data-name="Group 6">
    <g id="Group_5" data-name="Group 5">
      <path id="Path_3" data-name="Path 3" d="M400.049,111.951a20.683,20.683,0,1,0,6.058,14.625A20.83,20.83,0,0,0,400.049,111.951Z" fill="#da232e"/>
    </g>
  </g>
</svg>
