<svg xmlns="http://www.w3.org/2000/svg" width="60px" height="60px" viewBox="0 0 314.068 314.065">
  <g id="play-button" transform="translate(0 -0.002)">
    <g id="_x33_56._Play">
      <g id="Group_1" data-name="Group 1">
        <path id="Path_1" data-name="Path 1" d="M293,78.53A157,157,0,1,0,235.531,293,157,157,0,0,0,293,78.53ZM219.834,265.8a125.6,125.6,0,1,1,45.974-171.57A125.593,125.593,0,0,1,219.834,265.8Zm-6.279-115.149L131.341,102.7c-7.492-4.374-13.535-.877-13.493,7.789l.421,95.174c.038,8.664,6.155,12.191,13.669,7.851l81.585-47.1C221.029,162.082,221.045,155.026,213.555,150.652Z" fill="#fff"/>
      </g>
    </g>
  </g>
</svg>
